# Blender v2.80 (sub 47) OBJ File: 'respawn_platform.blend'
# www.blender.org
mtllib respawn_platform.mtl
o Cube
v 0.799851 0.000000 -1.000000
v 1.000000 0.000000 -0.799851
v 1.000000 0.000000 0.799851
v 0.799851 0.000000 1.000000
v -1.000000 0.000000 -0.799851
v -0.799851 0.000000 -1.000000
v -0.799851 0.000000 1.000000
v -1.000000 0.000000 0.799851
v -1.000000 3.000000 0.799851
v -0.799851 3.000000 1.000000
v -0.799851 3.000000 -1.000000
v -1.000000 3.000000 -0.799851
v 0.799851 3.000000 1.000000
v 1.000000 3.000000 0.799851
v 1.000000 3.000000 -0.799851
v 0.799851 3.000000 -1.000000
v 1.028711 0.000000 -0.822816
v 0.822816 0.000000 -1.028711
v -1.028711 0.000000 0.822816
v -0.822816 0.000000 1.028711
v 0.822816 0.000000 1.028711
v 1.028711 0.000000 0.822816
v -0.822816 0.000000 -1.028711
v -1.028711 0.000000 -0.822816
v -0.822816 3.000000 1.028711
v 0.822816 3.000000 -1.028711
v -1.028711 3.000000 0.822816
v 0.822816 3.000000 1.028711
v -0.822816 3.000000 -1.028711
v 1.028711 3.000000 -0.822816
v -1.028711 3.000000 -0.822816
v 1.028711 3.000000 0.822816
vt 1.000000 0.000000
vt 0.899926 0.000000
vt 0.899926 1.000000
vt 1.000000 1.000000
vt 0.899926 0.000000
vt 0.100074 0.000000
vt 0.100074 1.000000
vt 0.899926 1.000000
vt 0.000000 0.000000
vt 0.100074 0.000000
vt 0.100074 1.000000
vt 0.000000 1.000000
vt 0.100074 0.000000
vt 0.000000 0.000000
vt 0.000000 1.000000
vt 0.100074 1.000000
vt 1.000000 0.000000
vt 1.000000 1.000000
vt 0.100074 0.000000
vt 0.899926 0.000000
vt 0.899926 1.000000
vt 0.100074 1.000000
vt 0.899926 0.000000
vt 0.899926 1.000000
vt -0.000037 0.000000
vt -0.000037 1.000000
vt 0.100037 1.000000
vt 0.100037 0.000000
vt 0.100074 0.000000
vt 0.100074 1.000000
vt 0.899926 1.000000
vt 0.899926 0.000000
vt 1.000000 1.000000
vt 1.000000 0.000000
vt 1.000037 0.000000
vt 1.000037 1.000000
vt 0.899963 1.000000
vt 0.899963 0.000000
vt 0.100075 0.000000
vt 0.100075 1.000000
vt 0.000000 1.000000
vt 0.000000 0.000000
vt 0.899925 0.000000
vt 0.899925 1.000000
vt 0.899926 0.000000
vt 0.899926 1.000000
vt 0.100075 1.000000
vt 0.100075 0.000000
vt 0.100075 0.000000
vt 0.100075 1.000000
vt 0.899925 1.000000
vt 0.899925 0.000000
vn 0.7071 0.0000 -0.7071
vn -1.0000 0.0000 0.0000
vn -0.7071 0.0000 -0.7071
vn 0.7071 0.0000 0.7071
vn -0.7071 0.0000 0.7071
vn 0.0000 0.0000 1.0000
vn 1.0000 0.0000 0.0000
vn 0.0000 0.0000 -1.0000
usemtl Material
s off
f 7/1/1 8/2/1 9/3/1 10/4/1
f 2/5/2 3/6/2 14/7/2 15/8/2
f 3/9/3 4/10/3 13/11/3 14/12/3
f 5/13/4 6/14/4 11/15/4 12/16/4
f 1/17/5 2/5/5 15/8/5 16/18/5
f 6/19/6 1/20/6 16/21/6 11/22/6
f 8/2/7 5/13/7 12/16/7 9/3/7
f 4/10/8 7/23/8 10/24/8 13/11/8
f 20/25/5 25/26/5 27/27/5 19/28/5
f 17/29/7 30/30/7 32/31/7 22/32/7
f 22/32/4 32/31/4 28/33/4 21/34/4
f 24/35/3 31/36/3 29/37/3 23/38/3
f 18/39/1 26/40/1 30/41/1 17/42/1
f 23/43/8 29/44/8 26/40/8 18/39/8
f 19/45/2 27/46/2 31/47/2 24/48/2
f 21/49/6 28/50/6 25/51/6 20/52/6
l 8 19
l 20 7
l 15 30
l 32 14
l 4 21
l 22 3
l 28 13
l 6 23
l 24 5
l 12 31
l 29 11
l 25 10
l 1 18
l 26 16
l 17 2
l 27 9
