# Blender v2.80 (sub 47) OBJ File: ''
# www.blender.org
o Cube
v 0.997516 0.037498 -0.250009
v 0.997516 0.037498 0.250009
v -0.002520 0.037498 -0.250009
v -0.002520 0.037498 0.250009
v 0.497498 0.037498 -0.250009
v 0.497498 0.037498 0.250009
v 0.997516 -0.750000 -0.250009
v 0.997516 -0.750000 0.250009
v 0.497498 -0.750000 -0.250009
v 0.497498 -0.750000 0.250009
v 0.997516 1.800000 -0.250009
v 0.997516 1.800000 0.250009
v -0.002520 1.800000 -0.250009
v -0.002520 1.800000 0.250009
v 0.497498 1.800000 0.250009
v 0.497498 1.800000 -0.250009
vt 0.375000 0.500000
vt 0.125000 0.750000
vt 0.125000 0.500000
vt 0.875000 0.625000
vt 0.625000 0.750000
vt 0.625000 0.625000
vt 0.625000 0.625000
vt 0.625000 0.500000
vt 0.375000 0.750000
vt 0.375000 0.500000
vt 0.625000 0.250000
vt 0.375000 0.375000
vt 0.375000 0.250000
vt 0.500000 0.750000
vt 0.375000 1.000000
vt 0.875000 0.500000
vt 0.625000 0.500000
vt 0.625000 0.750000
vt 0.500000 1.000000
vt 0.500000 0.750000
vt 0.375000 0.250000
vt 0.500000 1.000000
vt 0.125000 0.500000
vt 0.625000 0.000000
vt 0.500000 0.250000
vt 0.500000 0.000000
vt 0.375000 0.250000
vt 0.375000 0.000000
vt 0.625000 0.375000
vt 0.375000 0.750000
vt 0.875000 0.750000
vt 0.625000 0.750000
vt 0.625000 1.000000
vt 0.375000 0.375000
vt 0.125000 0.750000
vt 0.625000 0.250000
vn 1.0000 0.0000 0.0000
vn 0.0000 0.0000 -1.0000
vn -1.0000 0.0000 0.0000
vn 0.0000 0.0000 1.0000
vn 0.0000 -1.0000 0.0000
vn 0.0000 1.0000 0.0000
s off
f 11/1/1 2/2/1 1/3/1
f 16/4/2 1/5/2 5/6/2
f 1/5/2 9/7/2 5/6/2
f 14/8/3 3/9/3 4/10/3
f 12/11/4 6/12/4 2/13/4
f 5/14/5 4/15/5 3/9/5
f 13/16/2 5/6/2 3/17/2
f 7/18/5 10/19/5 9/20/5
f 6/12/4 8/21/4 2/13/4
f 5/14/3 10/19/3 6/22/3
f 2/2/1 7/23/1 1/3/1
f 13/24/6 15/25/6 16/26/6
f 16/26/6 12/27/6 11/28/6
f 15/29/4 4/10/4 6/12/4
f 11/1/1 12/30/1 2/2/1
f 16/4/2 11/31/2 1/5/2
f 1/5/2 7/18/2 9/7/2
f 14/8/3 13/32/3 3/9/3
f 12/11/4 15/29/4 6/12/4
f 5/14/5 6/22/5 4/15/5
f 13/16/2 16/4/2 5/6/2
f 7/18/5 8/33/5 10/19/5
f 6/12/4 10/34/4 8/21/4
f 5/14/3 9/20/3 10/19/3
f 2/2/1 8/35/1 7/23/1
f 13/24/6 14/36/6 15/25/6
f 16/26/6 15/25/6 12/27/6
f 15/29/4 14/8/4 4/10/4
